{"title":"David And Goliath 2016 Movies BRRip XviD AAC New +Sample ~ ☻rDX☻","uid":15912899,"size":739777770,"categoryP":"video","categoryS":"movies","magnet":"?xt=urn:btih:5953cb97deaa39e01c4963db0f69d0649c8a8185&amp;dn=David+And+Goliath+2016+Movies+BRRip+XviD+AAC+New+%2BSample+%7E+%E2%98%BBrDX%E2%98%BB&amp;tr=udp%3A%2F%2Ftracker.leechers-paradise.org%3A6969&amp;tr=udp%3A%2F%2Fzer0day.ch%3A1337&amp;tr=udp%3A%2F%2Fopen.demonii.com%3A1337&amp;tr=udp%3A%2F%2Ftracker.coppersurfer.tk%3A6969&amp;tr=udp%3A%2F%2Fexodus.desync.com%3A6969","seeders":1,"leechers":92,"uploader":"basicssom","files":2,"time":1475137268,"description":"----------------------------------------------------------------\r\nDavid And Goliath 2016 English Movies BRRip XviD AAC New Source with Sample ☻rDX☻\r\n\r\nSCREEN SHOTS &amp; POSTER:\r\n  \nhttp://postimage.co.nr/2016/10/best/index.htm  \nhttp://postimage.co.nr/2016/10/best/1.html  \nhttp://postimage.co.nr/2016/10/best/2.html  \nhttp://postimage.co.nr/2016/10/best/3.html  \nhttp://postimage.co.nr/2016/10/best/4.html  \nhttp://postimage.co.nr/2016/10/best/5.html  \nhttp://postimage.co.nr/2016/10/best/6.html  \nhttp://postimage.co.nr/2016/10/best/7.html  \nhttp://postimage.co.nr/2016/10/best/8.html  \nhttp://postimage.co.nr/2016/10/best/9.html  \nhttp://postimage.co.nr/2016/10/best/10.html\r\n\r\nFormat                                   : Matroska\r\nFormat version                           : Version 4 / Version 2\r\nFile size                                : 698 MiB\r\nDuration                                 : 1 h 15 min\r\nOverall bit rate mode                    : Constant\r\nOverall bit rate                         : 1 300 kb/s\r\nMovie name                               : David And Goliath 2016 English Movies BRRip XviD AAC New Source ☻rDX☻\r\n\r\nVideo\r\nID                                       : 2\r\nFormat                                   : AVC\r\nFormat/Info                              : Advanced Video Codec\r\nFormat profile                           :   \r\nFormat settings, CABAC                   : Yes\r\nFormat settings, ReFrames                : 2 frames\r\nFormat settings, GOP                     : M=1, N=12\r\nCodec ID                                 : V_MPEG4/ISO/AVC\r\nDuration                                 : 1 h 15 min\r\nBit rate mode                            : Constant\r\nBit rate                                 : 853 kb/s\r\nWidth                                    : 720 pixels\r\nHeight                                   : 306 pixels\r\nDisplay aspect ratio                     : 2.35:1\r\nFrame rate mode                          : Constant\r\nFrame rate                               : 23.976 (24000/1001) FPS\r\nColor space                              : YUV\r\nChroma subsampling                       : 4:2:0\r\nBit depth                                : 8 bits\r\nScan type                                : Progressive\r\nBits/(Pixel*Frame)                       : 0.161\r\nStream size                              : 444 MiB (64%)\r\nTitle                                    : ☻rDX☻\r\nDefault                                  : Yes\r\nForced                                   : No\r\n\r\nAudio\r\nID                                       : 1\r\nFormat                                   : AC-3\r\nFormat/Info                              : Audio Coding 3\r\nMode extension                           : CM (complete main)\r\nFormat settings, Endianness              : Big\r\nCodec ID                                 : A_AC3\r\nDuration                                 : 1 h 15 min\r\nBit rate mode                            : Constant\r\nBit rate                                 : 448 kb/s\r\nChannel(s)                               : 6 channels\r\nChannel positions                        : Front: L C R, Side: L R, LFE\r\nSampling rate                            : 48.0 kHz\r\nFrame rate                               : 31.250 FPS (1536 spf)\r\nCompression mode                         : Lossy\r\nStream size                              : 241 MiB (34%)\r\nTitle                                    : ☻rDX☻\r\nDefault                                  : Yes\r\nForced                                   : No\r\n\r\nIMDB \nhttp://www.imdb.com/title/tt4352408/","torrent":{"xt":"urn:btih:5953cb97deaa39e01c4963db0f69d0649c8a8185","amp;dn":"David+And+Goliath+2016+Movies+BRRip+XviD+AAC+New+%2BSample+%7E+%E2%98%BBrDX%E2%98%BB","amp;tr":["udp%3A%2F%2Ftracker.leechers-paradise.org%3A6969","udp%3A%2F%2Fzer0day.ch%3A1337","udp%3A%2F%2Fopen.demonii.com%3A1337","udp%3A%2F%2Ftracker.coppersurfer.tk%3A6969","udp%3A%2F%2Fexodus.desync.com%3A6969"],"infoHash":"5953cb97deaa39e01c4963db0f69d0649c8a8185","infoHashBuffer":{"type":"Buffer","data":[89,83,203,151,222,170,57,224,28,73,99,219,15,105,208,100,156,138,129,133]},"announce":[],"urlList":[]}}